<?xml version="1.0" standalone="no"?>
<!DOCTYPE svg PUBLIC "-//W3C//DTD SVG 20010904//EN"
 "http://www.w3.org/TR/2001/REC-SVG-20010904/DTD/svg10.dtd">
<svg version="1.0" xmlns="http://www.w3.org/2000/svg"
 width="300.000000pt" height="279.000000pt" viewBox="0 0 300.000000 279.000000"
 preserveAspectRatio="xMidYMid meet">
<metadata>
Created by potrace 1.10, written by Peter Selinger 2001-2011
</metadata>
<g transform="translate(0.000000,279.000000) scale(0.100000,-0.100000)"
fill="#000000" stroke="none">
<path d="M1466 2716 l-58 -54 -76 43 -76 43 -44 -57 c-24 -31 -47 -62 -51 -69
-8 -14 -9 -14 -162 33 -12 4 -25 -14 -52 -73 l-35 -78 -84 7 c-46 4 -86 5 -89
1 -3 -4 -13 -42 -23 -84 l-17 -76 -37 -6 c-20 -3 -58 -8 -84 -12 l-47 -6 -7
-89 -7 -88 -74 -22 c-41 -13 -77 -28 -79 -34 -3 -6 2 -44 11 -84 8 -40 15 -74
15 -76 0 -2 -33 -24 -74 -50 l-74 -46 33 -77 33 -77 -61 -62 -61 -62 48 -70
49 -70 -47 -65 c-25 -35 -46 -69 -46 -74 0 -5 27 -35 60 -66 l59 -56 -33 -79
-34 -78 75 -44 c60 -36 73 -48 69 -64 -10 -43 -27 -147 -24 -150 2 -1 38 -14
81 -30 l77 -28 2 -51 c1 -28 3 -67 3 -86 l1 -35 85 -10 84 -10 22 -85 c11 -47
25 -84 30 -84 4 1 43 5 86 9 l78 7 36 -80 36 -79 76 24 c42 12 81 23 86 23 6
0 32 -30 59 -65 27 -36 50 -65 52 -65 1 0 36 18 77 40 l74 40 49 -42 c27 -23
57 -48 66 -56 16 -13 24 -9 82 42 l64 56 74 -40 c40 -22 75 -40 78 -40 3 0 28
29 55 65 27 36 54 65 60 65 6 0 44 -11 84 -24 l73 -24 37 79 36 78 90 -2 89
-2 9 45 c4 25 13 61 18 81 l9 37 85 7 85 7 0 87 0 86 83 29 c45 16 83 30 85
31 1 1 -4 34 -13 74 -8 40 -15 78 -15 86 0 7 33 33 73 56 l74 43 -36 79 -36
80 64 58 65 58 -47 70 c-26 39 -47 73 -47 75 0 3 21 35 47 72 l47 67 -63 60
-64 59 32 72 c17 39 31 76 31 81 0 6 -31 28 -70 50 -38 22 -69 47 -69 55 0 8
6 47 13 85 10 52 11 72 3 77 -7 4 -44 17 -84 29 l-73 23 0 87 0 88 -57 6
c-114 13 -115 14 -130 80 -7 33 -15 70 -18 81 -5 20 -9 21 -93 16 l-88 -5 -33
74 c-19 41 -35 75 -36 76 -1 2 -37 -8 -81 -22 -43 -14 -82 -25 -85 -25 -4 0
-77 96 -105 138 -1 2 -36 -17 -78 -42 -72 -43 -78 -44 -94 -28 -34 33 -109 92
-118 92 -5 -1 -35 -25 -68 -54z m131 -36 c54 -47 76 -49 143 -15 27 14 56 25
64 25 8 0 33 -22 56 -49 22 -28 49 -53 60 -56 10 -3 46 1 80 10 72 19 83 14
112 -53 27 -60 52 -74 125 -67 71 6 74 3 97 -77 18 -64 40 -81 114 -91 62 -8
72 -20 72 -86 0 -73 16 -95 91 -122 l61 -23 -6 -73 c-8 -83 4 -112 54 -133 16
-6 37 -21 46 -32 18 -19 18 -22 -4 -81 -12 -34 -22 -68 -22 -75 0 -7 23 -37
50 -66 55 -58 55 -63 13 -125 -39 -57 -39 -74 2 -141 l37 -61 -27 -34 c-14
-19 -30 -35 -34 -35 -4 0 -16 -15 -26 -34 -18 -33 -18 -35 3 -86 12 -29 22
-61 22 -70 0 -11 -21 -31 -50 -50 -67 -43 -73 -57 -65 -141 l7 -69 -65 -29
c-75 -34 -87 -50 -87 -120 0 -62 -14 -77 -83 -85 -67 -9 -86 -28 -108 -104
l-16 -57 -74 -3 c-84 -3 -99 -12 -135 -84 -13 -26 -28 -49 -34 -53 -5 -3 -33
1 -62 10 -78 23 -87 20 -145 -42 l-53 -57 -65 32 c-38 19 -72 29 -82 25 -10
-3 -41 -24 -70 -45 -56 -43 -55 -43 -120 9 -23 19 -51 35 -62 36 -11 0 -48
-12 -81 -28 l-61 -29 -53 57 c-29 31 -62 57 -72 57 -10 0 -44 -7 -73 -15 -65
-17 -71 -13 -107 57 -30 59 -46 68 -129 68 -73 0 -73 0 -95 88 -12 49 -36 67
-100 77 -72 12 -80 19 -80 76 0 71 -20 104 -77 125 -73 26 -83 40 -73 94 17
85 14 97 -32 130 -24 16 -53 36 -65 45 l-22 15 23 66 c13 37 21 74 19 84 -3
10 -25 37 -49 61 -24 24 -44 48 -44 55 0 6 16 38 35 70 19 32 35 63 35 69 0 6
-16 35 -35 65 -19 30 -35 60 -35 66 0 5 16 26 36 45 62 59 66 75 40 151 -13
36 -21 70 -17 75 3 5 28 24 54 42 62 42 70 61 59 133 -5 31 -5 63 -1 71 5 8
29 20 53 27 68 19 90 49 96 128 l5 67 63 11 c76 14 98 32 118 101 18 63 37 76
101 67 59 -7 92 14 128 87 14 27 31 49 37 49 6 0 38 -7 70 -16 70 -20 94 -12
136 48 15 21 34 40 43 43 9 3 40 -6 70 -20 30 -14 63 -25 74 -25 11 0 43 18
70 39 28 22 56 40 63 40 8 1 34 -17 59 -39z"/>
<path d="M2023 2298 c-11 -13 -28 -49 -37 -81 -9 -31 -34 -96 -56 -143 -22
-47 -40 -87 -40 -89 0 -19 -345 -712 -370 -742 -14 -18 -32 -24 -86 -29 -37
-3 -93 -12 -123 -20 -31 -9 -69 -19 -86 -24 -41 -10 -184 -74 -204 -91 -9 -8
-40 -32 -69 -54 -28 -21 -52 -43 -52 -48 0 -4 -4 -5 -10 -2 -5 3 -10 -1 -10
-9 0 -9 -4 -16 -10 -16 -5 0 3 30 17 68 37 95 107 299 143 417 16 55 34 106
38 113 5 7 52 28 106 46 53 18 102 38 108 44 17 17 6 15 -52 -8 -27 -11 -50
-18 -50 -15 0 6 -111 -36 -127 -47 -6 -5 -15 -24 -19 -41 -3 -18 -17 -65 -30
-105 -14 -41 -27 -90 -30 -110 -3 -21 -9 -41 -14 -47 -4 -5 -15 -35 -25 -65
-10 -30 -21 -59 -25 -65 -4 -5 -17 -39 -29 -74 -33 -96 -42 -113 -114 -196
-37 -44 -125 -79 -179 -72 -82 11 -130 68 -136 161 -8 120 53 249 173 371 114
115 145 140 242 191 35 19 59 65 67 130 2 22 25 111 50 199 51 178 54 195 29
195 -60 -2 -241 -70 -185 -70 13 0 39 8 60 19 20 10 54 21 75 25 48 9 48 7 -4
-192 -75 -286 -61 -258 -164 -326 -131 -85 -250 -211 -303 -317 -94 -191 -79
-330 44 -389 77 -38 165 -17 249 61 46 43 46 43 38 13 -4 -16 -8 -60 -8 -99 0
-82 20 -119 88 -162 36 -23 51 -26 119 -25 44 1 93 8 114 17 75 31 164 119
253 250 19 27 37 52 40 55 3 3 14 19 23 35 124 215 135 225 231 225 l53 0 -1
-257 c0 -181 4 -268 12 -293 7 -19 13 -39 12 -44 0 -5 3 -12 8 -15 4 -3 13
-15 19 -25 15 -28 75 -57 121 -58 117 -3 234 78 368 257 52 69 155 229 155
241 0 3 9 19 21 35 24 34 22 77 -3 93 -28 17 -43 1 -120 -124 -110 -180 -249
-342 -305 -356 -29 -8 -70 21 -77 54 -10 50 2 326 20 427 17 101 35 134 74
135 25 1 214 96 233 118 22 24 19 50 -6 66 -14 9 -30 5 -80 -21 -162 -82 -184
-86 -172 -29 3 17 9 42 11 56 3 14 16 72 30 130 14 58 34 141 44 185 18 77 27
111 84 310 32 112 32 124 0 189 -40 82 -116 112 -161 64z m107 -26 c43 -43 56
-99 40 -170 -7 -31 -14 -64 -15 -72 -1 -8 -16 -60 -33 -115 -36 -118 -52 -179
-57 -214 -2 -14 -4 -27 -4 -28 -11 -39 -91 -382 -91 -389 0 -19 210 65 251
100 11 9 26 16 34 16 23 0 28 -20 9 -36 -35 -27 -225 -115 -260 -121 -32 -5
-61 -33 -48 -46 3 -3 1 -28 -5 -55 -5 -27 -18 -112 -27 -188 -34 -292 10 -420
124 -360 36 19 139 126 193 201 23 33 48 65 55 72 6 6 35 55 65 108 53 97 71
117 91 97 6 -6 2 -22 -14 -48 -14 -22 -38 -64 -55 -95 -46 -84 -169 -246 -241
-317 -114 -113 -243 -153 -311 -97 -16 14 -40 52 -53 83 -22 54 -23 70 -22
277 0 127 5 239 12 264 6 25 9 48 7 51 -2 4 -53 0 -112 -9 l-108 -16 -52 -95
c-29 -52 -59 -102 -65 -110 -7 -9 -39 -55 -71 -102 -78 -116 -162 -202 -228
-233 -118 -55 -260 -19 -300 76 -20 50 -6 141 32 201 71 110 273 235 424 263
37 6 223 35 230 35 4 0 109 190 110 200 1 3 23 48 50 100 27 52 49 97 50 100
1 3 27 59 59 125 148 306 195 413 222 505 9 30 21 58 28 62 23 16 58 7 86 -20z"/>
<path d="M1887 1838 c-9 -18 -33 -71 -54 -118 -21 -47 -86 -181 -144 -297 -58
-117 -102 -213 -98 -213 17 0 165 21 182 26 9 3 17 15 17 27 0 12 9 69 21 127
11 58 22 116 24 130 2 14 4 27 5 30 2 3 2 9 1 14 -1 4 15 73 34 153 20 80 35
147 32 149 -2 2 -11 -11 -20 -28z m-73 -284 c-1 -5 -6 -34 -12 -64 -6 -30 -16
-89 -22 -130 -13 -89 -28 -107 -93 -116 -44 -6 -48 -5 -45 12 6 38 151 315
162 311 6 -3 11 -8 10 -13z"/>
<path d="M1435 1149 c-22 -5 -60 -11 -85 -14 -109 -13 -284 -95 -372 -174 -95
-85 -131 -188 -93 -261 28 -54 125 -75 219 -48 52 15 165 126 232 229 27 41
54 80 60 86 13 14 104 177 104 187 0 7 -13 6 -65 -5z m-24 -107 c-143 -243
-265 -369 -366 -377 -89 -7 -145 35 -145 109 0 135 220 294 469 339 59 11 66
11 69 -4 2 -9 -10 -39 -27 -67z"/>
<path d="M1088 2246 c-15 -7 -28 -27 -36 -56 -24 -85 -33 -94 -90 -102 -74
-11 -201 -78 -148 -78 9 0 16 4 16 9 0 10 95 52 113 50 6 -1 31 -1 53 0 l42 1
17 73 c20 83 29 97 60 97 45 0 85 -86 66 -142 -6 -17 -10 -32 -9 -33 8 -4 248
-38 290 -41 53 -2 125 14 175 39 57 30 46 38 -14 11 -69 -32 -176 -37 -313
-14 -92 14 -112 24 -103 46 9 25 -7 82 -32 113 -30 34 -55 43 -87 27z"/>
<path d="M1693 2061 c-33 -52 -164 -79 -307 -61 -55 6 -121 13 -146 15 -25 2
-51 5 -59 6 -7 2 -15 -5 -17 -18 -4 -21 -42 -159 -86 -306 -11 -37 -18 -71
-16 -76 2 -5 35 4 73 19 39 16 82 29 98 29 15 1 27 6 27 12 0 12 -77 3 -95
-11 -5 -4 -22 -10 -37 -12 -23 -4 -28 -2 -28 15 0 26 68 285 82 310 10 20 18
20 196 -3 144 -20 281 9 319 67 9 13 14 26 11 28 -2 2 -9 -4 -15 -14z"/>
<path d="M815 1442 c-39 -26 -101 -77 -140 -113 -156 -148 -238 -376 -164
-450 41 -41 121 -14 170 58 35 51 121 253 144 338 7 28 25 85 39 129 15 43 25
80 24 82 -2 1 -35 -19 -73 -44z m24 -53 c-27 -117 -120 -353 -172 -436 -46
-72 -113 -93 -144 -46 -37 56 -12 171 62 288 49 76 218 234 251 235 9 0 9 -12
3 -41z"/>
<path d="M2183 52 c-16 -10 -5 -52 13 -52 15 0 35 39 27 53 -5 9 -25 9 -40 -1z"/>
</g>
</svg>
